<?xml version="1.0" encoding="UTF-8"?>
<svg xmlns="http://www.w3.org/2000/svg" xmlns:xlink="http://www.w3.org/1999/xlink" width="17pt" height="17pt" viewBox="0 0 17 17" version="1.1">
<g id="surface3811175">
<path style=" stroke:none;fill-rule:nonzero;fill:rgb(92.54902%,94.117647%,94.509804%);fill-opacity:1;" d="M 7.140625 1.019531 C 3.945312 1.019531 1.359375 3.605469 1.359375 6.800781 C 1.359375 9.996094 3.945312 12.578125 7.140625 12.578125 C 8.28125 12.578125 9.335938 12.246094 10.230469 11.675781 L 14.40625 15.851562 L 15.851562 14.40625 L 11.730469 10.296875 C 12.472656 9.324219 12.921875 8.117188 12.921875 6.800781 C 12.921875 3.605469 10.335938 1.019531 7.140625 1.019531 Z M 7.140625 2.378906 C 9.585938 2.378906 11.558594 4.351562 11.558594 6.800781 C 11.558594 9.246094 9.585938 11.21875 7.140625 11.21875 C 4.691406 11.21875 2.71875 9.246094 2.71875 6.800781 C 2.71875 4.351562 4.691406 2.378906 7.140625 2.378906 Z M 7.140625 2.378906 "/>
</g>
</svg>
