<?xml version="1.0" encoding="UTF-8"?>
<svg xmlns="http://www.w3.org/2000/svg" xmlns:xlink="http://www.w3.org/1999/xlink" width="14pt" height="14pt" viewBox="0 0 14 14" version="1.1">
<g id="surface3329261">
<path style=" stroke:none;fill-rule:nonzero;fill:rgb(80%,80%,80%);fill-opacity:1;" d="M 8.3125 1.3125 C 5.902344 1.3125 3.9375 3.277344 3.9375 5.6875 C 3.9375 6.734375 4.304688 7.695312 4.921875 8.449219 L 1.4375 11.9375 L 2.0625 12.5625 L 5.550781 9.078125 C 6.304688 9.695312 7.265625 10.0625 8.3125 10.0625 C 10.722656 10.0625 12.6875 8.097656 12.6875 5.6875 C 12.6875 3.277344 10.722656 1.3125 8.3125 1.3125 Z M 8.3125 2.1875 C 10.25 2.1875 11.8125 3.75 11.8125 5.6875 C 11.8125 7.625 10.25 9.1875 8.3125 9.1875 C 6.375 9.1875 4.8125 7.625 4.8125 5.6875 C 4.8125 3.75 6.375 2.1875 8.3125 2.1875 Z M 8.3125 2.1875 "/>
</g>
</svg>
